<mxfile host="app.diagrams.net" modified="2023-05-12T02:57:02.001Z" agent="Mozilla/5.0 (Windows NT 10.0; Win64; x64; rv:109.0) Gecko/20100101 Firefox/110.0" version="21.1.7" etag="zH6q0WarwZ-ZmZcP0XDg" type="github">
  <diagram name="第 1 页" id="yBFGC0pdGZR01VPDT1VP">
    <mxGraphModel>
      <root>
        <mxCell id="0" />
        <mxCell id="1" parent="0" />
      </root>
    </mxGraphModel>
  </diagram>
</mxfile>
